<svg width="33" height="32" viewBox="0 0 33 32" fill="none" xmlns="http://www.w3.org/2000/svg">
<path d="M16.5 6.66657C16.5016 6.13328 16.3965 5.60506 16.1909 5.11297C15.9854 4.62089 15.6835 4.17487 15.303 3.80117C14.9226 3.42746 14.4712 3.1336 13.9755 2.93688C13.4799 2.74016 12.9498 2.64454 12.4167 2.65565C11.8835 2.66677 11.3579 2.78439 10.8708 3.00159C10.3838 3.2188 9.94509 3.53121 9.58053 3.92044C9.21598 4.30968 8.93294 4.76788 8.74807 5.26811C8.56319 5.76833 8.48021 6.30047 8.504 6.83324C7.72027 7.03475 6.99267 7.41197 6.37631 7.93632C5.75994 8.46067 5.27098 9.1184 4.94646 9.8597C4.62193 10.601 4.47034 11.4064 4.50318 12.215C4.53602 13.0235 4.75242 13.814 5.136 14.5266C4.46157 15.0745 3.93123 15.7789 3.59112 16.5785C3.251 17.3781 3.11141 18.2487 3.18448 19.1146C3.25756 19.9804 3.54109 20.8153 4.0104 21.5466C4.47972 22.2779 5.12062 22.8834 5.87733 23.3106C5.78389 24.0336 5.83965 24.768 6.04118 25.4686C6.24271 26.1692 6.58573 26.821 7.04904 27.3838C7.51236 27.9467 8.08614 28.4085 8.73496 28.7409C9.38377 29.0733 10.0938 29.2691 10.8213 29.3164C11.5488 29.3636 12.2782 29.2611 12.9645 29.0154C13.6508 28.7696 14.2795 28.3858 14.8117 27.8876C15.3439 27.3894 15.7682 26.7873 16.0586 26.1187C16.349 25.45 16.4992 24.7289 16.5 23.9999V6.66657Z" stroke="#FAFAFA" stroke-width="2.66667" stroke-linecap="round" stroke-linejoin="round"/>
<path d="M16.5 6.66657C16.4984 6.13328 16.6035 5.60506 16.8091 5.11297C17.0147 4.62089 17.3165 4.17487 17.697 3.80117C18.0774 3.42746 18.5288 3.1336 19.0245 2.93688C19.5202 2.74016 20.0502 2.64454 20.5834 2.65565C21.1165 2.66677 21.6421 2.78439 22.1292 3.00159C22.6162 3.2188 23.0549 3.53121 23.4195 3.92044C23.784 4.30968 24.0671 4.76788 24.252 5.26811C24.4368 5.76833 24.5198 6.30047 24.496 6.83324C25.2797 7.03475 26.0073 7.41197 26.6237 7.93632C27.2401 8.46067 27.729 9.1184 28.0536 9.8597C28.3781 10.601 28.5297 11.4064 28.4968 12.215C28.464 13.0235 28.2476 13.814 27.864 14.5266C28.5384 15.0745 29.0688 15.7789 29.4089 16.5785C29.749 17.3781 29.8886 18.2487 29.8155 19.1146C29.7425 19.9804 29.4589 20.8153 28.9896 21.5466C28.5203 22.2779 27.8794 22.8834 27.1227 23.3106C27.2161 24.0336 27.1604 24.768 26.9588 25.4686C26.7573 26.1692 26.4143 26.821 25.951 27.3838C25.4877 27.9467 24.9139 28.4085 24.2651 28.7409C23.6162 29.0733 22.9062 29.2691 22.1787 29.3164C21.4512 29.3636 20.7218 29.2611 20.0355 29.0154C19.3492 28.7696 18.7205 28.3858 18.1883 27.8876C17.6562 27.3894 17.2318 26.7873 16.9414 26.1187C16.651 25.45 16.5008 24.7289 16.5 23.9999V6.66657Z" stroke="#FAFAFA" stroke-width="2.66667" stroke-linecap="round" stroke-linejoin="round"/>
<path d="M20.5 17.3333C19.3806 16.9395 18.4031 16.2227 17.6911 15.2733C16.9791 14.324 16.5646 13.1849 16.5 12C16.4354 13.1849 16.0209 14.324 15.3089 15.2733C14.5969 16.2227 13.6194 16.9395 12.5 17.3333" stroke="#FAFAFA" stroke-width="2.66667" stroke-linecap="round" stroke-linejoin="round"/>
<path d="M23.9653 8.66659C24.288 8.10737 24.4706 7.47834 24.4973 6.83325" stroke="#FAFAFA" stroke-width="2.66667" stroke-linecap="round" stroke-linejoin="round"/>
<path d="M8.50403 6.83325C8.53039 7.47823 8.71247 8.10725 9.0347 8.66659" stroke="#FAFAFA" stroke-width="2.66667" stroke-linecap="round" stroke-linejoin="round"/>
<path d="M5.13599 14.528C5.37991 14.3293 5.64092 14.1527 5.91599 14" stroke="#FAFAFA" stroke-width="2.66667" stroke-linecap="round" stroke-linejoin="round"/>
<path d="M27.084 14C27.359 14.1527 27.6201 14.3293 27.864 14.528" stroke="#FAFAFA" stroke-width="2.66667" stroke-linecap="round" stroke-linejoin="round"/>
<path d="M8.49999 24C7.58109 24.0004 6.67768 23.7634 5.87732 23.312" stroke="#FAFAFA" stroke-width="2.66667" stroke-linecap="round" stroke-linejoin="round"/>
<path d="M27.1227 23.312C26.3223 23.7634 25.4189 24.0004 24.5 24" stroke="#FAFAFA" stroke-width="2.66667" stroke-linecap="round" stroke-linejoin="round"/>
</svg>
